<?xml version="1.0" standalone="no"?>
<!DOCTYPE svg PUBLIC "-//W3C//DTD SVG 20010904//EN"
 "http://www.w3.org/TR/2001/REC-SVG-20010904/DTD/svg10.dtd">
<svg version="1.0" xmlns="http://www.w3.org/2000/svg"
 width="700.000000pt" height="400.000000pt" viewBox="0 0 700.000000 400.000000"
 preserveAspectRatio="xMidYMid meet">

<g transform="translate(0.000000,400.000000) scale(0.100000,-0.100000)"
fill="#000000" stroke="none">
<path d="M0 2000 l0 -2000 3500 0 3500 0 0 2000 0 2000 -3500 0 -3500 0 0
-2000z m6348 1488 c4 -34 5 -34 47 -2 l33 25 69 -34 c88 -45 109 -67 91 -96
-19 -31 -54 -31 -121 -1 -60 28 -76 25 -130 -19 -26 -22 -62 -42 -80 -46 -17
-4 -47 -12 -65 -18 -38 -13 -52 -1 -52 46 0 15 -4 27 -9 27 -5 0 -16 3 -25 6
-10 4 -16 1 -16 -9 0 -8 -9 -25 -19 -38 l-19 -24 -49 24 c-26 13 -67 36 -91
52 l-43 29 -68 -41 c-38 -22 -78 -54 -90 -70 -12 -16 -27 -29 -34 -29 -15 0
-7 -141 11 -182 11 -26 9 -29 -48 -74 -33 -26 -59 -49 -57 -51 2 -1 25 1 52 6
52 10 76 6 74 -13 -3 -38 -22 -61 -89 -111 -85 -63 -94 -61 -90 29 1 28 2 80
1 116 -1 61 0 66 25 81 26 16 27 21 25 78 -3 79 4 100 42 116 18 8 24 14 15
15 -29 0 -30 18 -3 64 41 70 101 118 181 145 l70 24 59 -47 58 -48 15 36 c15
38 26 43 65 25 20 -9 36 -7 81 10 31 11 61 21 67 21 6 0 7 -20 3 -52 -6 -47
-5 -52 8 -40 9 7 21 33 27 58 11 43 13 45 44 42 27 -2 33 -8 35 -30z m170
-172 c15 -8 38 -29 52 -48 22 -29 25 -43 25 -117 -1 -77 -3 -85 -26 -105 -16
-14 -29 -38 -33 -62 -4 -21 -10 -49 -13 -61 -4 -17 -1 -23 11 -23 24 0 20 -41
-8 -83 -13 -19 -27 -44 -31 -56 -3 -12 -17 -34 -30 -50 l-25 -28 45 -6 c75
-11 115 -32 115 -61 0 -30 2 -30 -75 -11 -75 18 -85 18 -85 2 0 -7 30 -25 66
-41 77 -34 94 -49 94 -82 0 -13 -2 -24 -4 -24 -2 0 -42 18 -89 40 -88 41 -107
47 -107 30 0 -5 -8 -14 -18 -19 -14 -7 -29 -3 -64 19 -25 16 -62 32 -81 35
-30 6 -36 12 -41 40 -5 27 -2 38 19 59 14 14 25 29 25 35 0 5 10 11 23 13 41
6 25 32 -28 46 -69 17 -155 0 -155 -30 0 -17 4 -19 25 -14 21 5 25 3 25 -14 0
-11 9 -28 20 -37 23 -20 26 -61 8 -85 -7 -8 -35 -21 -63 -28 -27 -7 -59 -19
-70 -27 -26 -17 -50 -17 -65 2 -20 24 -44 18 -150 -35 -55 -27 -104 -50 -109
-50 -5 0 -13 10 -17 22 -9 29 25 56 133 105 92 42 111 69 41 58 -24 -4 -68
-16 -98 -27 -30 -11 -67 -22 -82 -25 -25 -5 -28 -3 -28 23 0 26 6 32 68 57 37
15 91 30 120 34 28 3 52 10 52 15 0 4 -17 27 -38 51 -55 61 -80 127 -48 127
12 0 14 16 11 82 -3 75 -5 82 -28 95 -33 17 -67 73 -67 111 0 48 34 115 68
135 16 9 48 17 69 17 52 0 134 -42 156 -80 14 -23 25 -30 50 -30 18 -1 50 -7
71 -15 33 -12 43 -12 65 0 15 7 48 16 74 20 32 5 50 13 54 24 13 40 28 61 57
75 39 19 99 20 134 2z m-824 -494 c11 -18 -15 -81 -35 -87 -12 -4 -52 -38 -89
-77 -37 -38 -70 -66 -73 -61 -2 4 -7 36 -11 70 l-7 61 48 33 c26 19 71 41 98
51 60 20 62 20 69 10z m-99 -249 c-3 -27 -2 -69 3 -96 8 -39 6 -53 -10 -85
l-20 -37 26 24 c21 20 28 22 41 11 41 -34 39 -49 -12 -103 -26 -29 -51 -53
-54 -55 -4 -2 -13 23 -19 55 -7 32 -18 72 -25 88 -7 17 -16 70 -19 117 l-8 87
39 20 c59 31 65 28 58 -26z m723 -63 c42 -19 43 -20 36 -57 -7 -42 -31 -93
-42 -93 -4 0 -16 7 -27 16 -18 14 -20 13 -25 -8 -7 -26 -47 -36 -78 -19 -15 8
-23 7 -32 -4 -15 -18 -51 -20 -68 -3 -7 7 -12 28 -12 48 -1 32 -2 34 -15 16
-19 -25 -43 -14 -61 29 -18 43 -13 52 40 76 59 27 224 26 284 -1z m-520 -126
c14 -10 22 -25 22 -45 0 -17 5 -50 11 -75 6 -25 9 -47 6 -50 -3 -3 -24 4 -46
17 -30 17 -44 32 -51 58 -12 45 -12 53 0 85 11 30 26 32 58 10z m149 -73 c13
-19 23 -45 23 -58 0 -26 -26 -83 -38 -83 -4 0 -19 26 -33 58 -32 69 -30 125 4
120 12 -2 32 -18 44 -37z m597 19 c15 -5 26 -17 26 -28 0 -9 7 -28 16 -40 20
-30 15 -35 -29 -27 -30 6 -38 14 -51 46 -9 22 -16 44 -16 49 0 13 22 13 54 0z
m-99 -44 c33 -14 35 -18 35 -61 0 -26 5 -55 10 -66 15 -26 -12 -37 -47 -18
-34 18 -53 59 -53 114 0 49 4 52 55 31z m-87 -90 l3 -77 -43 3 -43 3 -3 57
c-3 56 -2 58 30 78 18 11 38 18 43 17 6 -2 11 -38 13 -81z m-658 30 c11 -22 9
-28 -21 -65 -48 -57 -83 -57 -106 2 -10 23 -17 44 -16 47 2 8 86 39 109 39 12
1 26 -9 34 -23z m543 -12 c9 -55 -15 -94 -57 -94 -36 0 -46 15 -46 72 0 32 32
58 71 58 23 0 27 -5 32 -36z m-180 16 c26 0 40 -20 47 -64 l7 -46 -44 0 c-41
0 -45 3 -59 35 -24 58 -14 91 24 79 8 -2 19 -4 25 -4z m-1981 -867 c16 -14 18
-35 18 -199 0 -178 -1 -183 -22 -198 -20 -14 -213 -16 -1859 -16 l-1838 0 -20
26 c-19 25 -21 40 -21 186 0 154 6 192 34 210 6 4 839 8 1850 8 1698 0 1841
-1 1858 -17z"/>
<path d="M6416 3228 c-17 -25 -21 -48 -7 -48 4 0 29 -16 54 -35 39 -30 47 -32
57 -20 21 25 18 95 -5 111 -30 22 -81 18 -99 -8z"/>
<path d="M5822 3224 c-29 -20 -28 -55 4 -93 l26 -31 49 43 c27 23 49 47 49 54
0 19 -42 43 -75 43 -17 0 -41 -7 -53 -16z"/>
<path d="M6075 3104 c-16 -8 -37 -22 -45 -30 -12 -12 -10 -14 16 -14 28 0 49
15 68 48 10 16 -3 15 -39 -4z"/>
<path d="M6265 3095 c27 -26 59 -32 85 -15 12 7 10 11 -10 18 -14 5 -42 12
-62 16 l-38 7 25 -26z"/>
<path d="M5931 2991 c-24 -6 -24 -7 14 -39 29 -26 43 -32 65 -27 32 7 39 -8
32 -68 -4 -31 -11 -43 -43 -63 -29 -18 -39 -31 -39 -50 0 -30 6 -27 67 33 29
28 33 41 43 115 9 74 8 84 -7 96 -18 13 -91 15 -132 3z"/>
<path d="M6279 2988 c-15 -11 -16 -23 -8 -87 8 -60 15 -80 42 -112 39 -46 84
-69 97 -49 6 10 -1 20 -22 33 -60 36 -84 69 -92 125 -6 48 3 68 19 42 13 -21
66 -10 97 20 l30 30 -45 0 c-24 0 -57 3 -73 6 -17 3 -36 0 -45 -8z"/>
<path d="M6325 2643 c15 -16 55 -26 55 -14 0 6 -6 11 -14 11 -8 0 -23 3 -33 6
-12 5 -15 4 -8 -3z"/>
<path d="M5975 2630 c-8 -13 5 -13 25 0 13 8 13 10 -2 10 -9 0 -20 -4 -23 -10z"/>
<path d="M2062 1263 c2 -10 10 -18 18 -18 22 0 18 29 -3 33 -14 3 -18 -1 -15
-15z"/>
<path d="M440 1261 c0 -5 10 -11 23 -13 20 -3 22 -9 25 -80 2 -59 6 -78 17
-78 11 0 15 19 17 78 3 71 5 77 26 80 48 7 19 22 -43 22 -36 0 -65 -4 -65 -9z"/>
<path d="M1034 1180 c-24 -67 -28 -90 -18 -90 7 0 18 9 24 20 7 14 21 20 44
20 25 0 35 -5 39 -20 3 -11 13 -20 22 -20 9 0 14 5 12 13 -3 6 -17 47 -32 90
-36 105 -51 103 -91 -13z m60 18 c9 -35 8 -38 -14 -38 -11 0 -20 3 -20 8 0 19
13 52 20 52 4 0 10 -10 14 -22z"/>
<path d="M2490 1180 c0 -73 3 -90 15 -90 11 0 15 11 15 40 0 38 2 40 30 40 17
0 30 5 30 10 0 6 -13 10 -30 10 -27 0 -30 3 -30 30 0 28 3 30 35 30 19 0 35 5
35 10 0 6 -22 10 -50 10 l-50 0 0 -90z"/>
<path d="M2930 1180 l0 -90 50 0 c28 0 50 5 50 10 0 6 -16 10 -35 10 -32 0
-35 2 -35 30 0 27 3 30 30 30 17 0 30 5 30 10 0 6 -13 10 -30 10 -27 0 -30 3
-30 30 0 28 3 30 35 30 19 0 35 5 35 10 0 6 -22 10 -50 10 l-50 0 0 -90z"/>
<path d="M853 1233 c-8 -16 -9 -29 -4 -33 6 -3 11 -28 13 -55 3 -47 5 -50 31
-50 15 0 27 5 27 10 0 6 -6 10 -12 10 -8 0 -14 17 -16 43 -2 33 0 42 12 42 9
0 16 5 16 10 0 6 -7 10 -15 10 -8 0 -15 9 -15 20 0 29 -23 24 -37 -7z"/>
<path d="M1340 1241 c0 -11 -6 -22 -12 -25 -10 -5 -10 -7 0 -12 7 -3 12 -24
12 -49 0 -45 17 -69 45 -63 19 4 21 23 3 23 -8 0 -14 17 -16 43 -2 33 0 42 12
42 9 0 16 5 16 10 0 6 -7 10 -15 10 -8 0 -15 9 -15 20 0 11 -7 20 -15 20 -8 0
-15 -9 -15 -19z"/>
<path d="M1970 1245 c0 -7 -8 -18 -17 -24 -17 -9 -17 -11 -1 -23 11 -8 18 -30
20 -58 3 -42 5 -45 31 -45 15 0 27 5 27 10 0 6 -6 10 -12 10 -8 0 -14 17 -16
43 -2 33 0 42 12 42 9 0 16 5 16 10 0 6 -6 10 -14 10 -7 0 -16 9 -19 20 -6 23
-27 27 -27 5z"/>
<path d="M599 1204 c-20 -24 -16 -84 7 -101 23 -17 76 -13 82 6 3 10 -1 12
-18 8 -28 -7 -50 1 -50 19 0 10 12 14 40 14 33 0 40 3 40 19 0 45 -72 70 -101
35z m69 -21 c2 -8 -6 -13 -22 -13 -25 0 -33 10 -19 24 10 10 36 3 41 -11z"/>
<path d="M737 1214 c-4 -4 -7 -17 -7 -30 0 -16 9 -25 31 -33 38 -13 34 -37 -6
-33 -19 2 -26 -1 -23 -10 3 -7 17 -14 32 -16 57 -7 79 51 26 71 -35 13 -41 39
-7 35 12 -2 24 2 27 7 6 11 -62 20 -73 9z"/>
<path d="M1180 1171 c0 -63 16 -79 75 -79 l45 1 0 64 c0 49 -3 63 -15 63 -11
0 -15 -12 -15 -45 0 -33 -5 -47 -18 -54 -27 -15 -42 5 -42 56 0 32 -4 43 -15
43 -11 0 -15 -12 -15 -49z"/>
<path d="M1446 1198 c-47 -66 34 -149 87 -90 20 22 22 83 5 100 -21 21 -75 15
-92 -10z m72 -31 c5 -38 -14 -60 -39 -46 -35 18 -17 84 21 77 8 -2 16 -16 18
-31z"/>
<path d="M1580 1154 c0 -50 3 -64 15 -64 11 0 15 12 15 44 0 54 24 81 46 51 8
-10 14 -36 14 -57 0 -21 5 -38 10 -38 6 0 10 20 10 44 0 26 6 48 15 56 25 20
45 -5 45 -56 0 -24 5 -44 10 -44 7 0 10 24 8 63 l-3 62 -92 1 -93 2 0 -64z"/>
<path d="M1822 1208 c-7 -7 -12 -31 -12 -55 0 -49 15 -62 73 -60 l37 1 0 63 0
63 -43 0 c-24 0 -48 -5 -55 -12z m66 -41 c4 -32 -13 -58 -33 -51 -18 7 -24 35
-14 63 12 32 43 24 47 -12z"/>
<path d="M2062 1158 c2 -38 8 -63 16 -66 9 -3 12 14 12 62 0 53 -3 66 -15 66
-13 0 -15 -11 -13 -62z"/>
<path d="M2142 1208 c-48 -61 5 -141 73 -110 58 26 35 122 -29 122 -18 0 -38
-6 -44 -12z m68 -28 c22 -41 -14 -84 -45 -54 -18 18 -19 28 -5 55 14 25 36 24
50 -1z"/>
<path d="M2280 1155 c0 -50 3 -65 14 -65 11 0 16 15 18 53 3 44 6 52 23 52 17
0 20 -8 23 -52 2 -38 7 -53 18 -53 18 0 20 100 2 118 -7 7 -31 12 -55 12 l-43
0 0 -65z"/>
<path d="M2626 1198 c-33 -46 -7 -108 44 -108 16 0 36 7 44 16 19 18 21 85 4
102 -21 21 -75 15 -92 -10z m73 -16 c22 -41 -14 -86 -44 -56 -18 18 -19 28 -5
55 13 24 36 25 49 1z"/>
<path d="M2762 1158 c4 -72 23 -88 31 -26 4 27 14 49 28 61 26 21 17 37 -11
19 -12 -7 -20 -8 -20 -2 0 5 -7 10 -15 10 -13 0 -15 -11 -13 -62z"/>
<path d="M3073 1158 c29 -83 49 -87 76 -13 24 65 26 75 8 75 -7 0 -19 -21 -26
-47 -14 -51 -15 -50 -41 20 -5 15 -16 27 -24 27 -13 0 -12 -10 7 -62z"/>
<path d="M3206 1198 c-43 -60 10 -128 78 -102 24 9 19 27 -6 21 -25 -7 -61 10
-53 24 4 5 24 9 46 9 43 0 49 12 23 48 -10 14 -26 22 -44 22 -18 0 -34 -8 -44
-22z m64 -13 c11 -13 8 -15 -20 -15 -28 0 -31 2 -20 15 7 8 16 15 20 15 4 0
13 -7 20 -15z"/>
<path d="M3340 1153 c0 -49 3 -63 15 -63 11 0 15 12 15 45 0 34 5 48 20 57 29
19 25 26 -15 25 l-35 -1 0 -63z"/>
<path d="M3430 1171 c0 -57 20 -85 57 -78 30 6 38 -7 17 -28 -9 -9 -24 -13
-35 -10 -13 5 -19 1 -19 -10 0 -13 8 -16 37 -13 49 4 63 31 63 121 0 53 -3 67
-15 67 -11 0 -15 -12 -15 -45 0 -33 -5 -47 -18 -54 -27 -15 -42 5 -42 56 0 32
-4 43 -15 43 -11 0 -15 -12 -15 -49z"/>
<path d="M3596 1205 c-9 -10 -16 -33 -16 -56 0 -33 4 -41 25 -51 60 -27 116
34 84 90 -18 33 -68 42 -93 17z m62 -17 c16 -16 15 -44 -3 -62 -23 -23 -45 -9
-45 28 0 46 21 61 48 34z"/>
<path d="M3730 1154 c0 -49 3 -64 14 -64 11 0 16 15 18 53 3 44 6 52 23 52 17
0 20 -8 23 -52 2 -38 7 -53 18 -53 19 0 20 103 1 118 -7 6 -32 11 -55 10 l-42
0 0 -64z"/>
<path d="M3887 1202 c-10 -10 -17 -32 -17 -49 0 -48 45 -76 94 -57 26 10 18
24 -12 22 -15 -1 -33 2 -40 6 -21 13 -2 26 39 26 43 0 49 12 23 48 -19 27 -64
29 -87 4z m63 -17 c11 -13 8 -15 -20 -15 -28 0 -31 2 -20 15 7 8 16 15 20 15
4 0 13 -7 20 -15z"/>
</g>
</svg>
